# xmcd
#
# Track frame offsets:
#	150
#	14614
#	31676
#	42368
#	56264
#	73441
#	85495
#	96476
#	111884
#	124749
#	139788
#	153054
#	172426
#	187510
#
# Disc length: 2693 seconds
#
# Revision: 1
# Processed by: cddbd v1.4PL0 Copyright (c) Steve Scherf et al.
# Submitted via: audiograbber 1.80
#
DISCID=bf0a830e
DTITLE=Ron Sexsmith - Blue Boy
DYEAR=1900
DGENRE=
TTITLE0=This song
TTITLE1=Cheap hotel
TTITLE2=Don't ask why
TTITLE3=Foolproof
TTITLE4=Tell me again
TTITLE5=Just my heart talking
TTITLE6=Not too big
TTITLE7=Miracle in iteself
TTITLE8=Thirsty love
TTITLE9=Never been done
TTITLE10=Thumbelina's farewell
TTITLE11=Parable
TTITLE12=Keep it in mind
TTITLE13=Fallen
EXTD=
EXTT0=
EXTT1=
EXTT2=
EXTT3=
EXTT4=
EXTT5=
EXTT6=
EXTT7=
EXTT8=
EXTT9=
EXTT10=
EXTT11=
EXTT12=
EXTT13=
PLAYORDER=
